<svg height="200px" width="200px" version="1.1" id="Layer_1" xmlns="http://www.w3.org/2000/svg" xmlns:xlink="http://www.w3.org/1999/xlink" viewBox="0 0 512 512" xml:space="preserve" fill="#000000"><g id="SVGRepo_bgCarrier" stroke-width="0"></g><g id="SVGRepo_tracerCarrier" stroke-linecap="round" stroke-linejoin="round"></g><g id="SVGRepo_iconCarrier"> <g> <path style="fill:#FBC176;" d="M0,167.724v264.828c0,14.627,11.855,26.483,26.483,26.483h459.034 c14.627,0,26.483-11.855,26.483-26.483V167.724c0-14.627-11.855-26.483-26.483-26.483H26.483C11.855,141.241,0,153.097,0,167.724"></path> <path style="fill:#C39A6E;" d="M467.862,141.241c0-19.5-15.81-35.31-35.31-35.31H291.31l-44.138-52.966H52.966 c-14.627,0-26.483,11.855-26.483,26.483v61.793H467.862z"></path> <g> <polygon style="fill:#546080;" points="256,220.69 273.655,220.69 273.655,203.034 256,203.034 "></polygon> <polygon style="fill:#546080;" points="256,291.31 273.655,291.31 273.655,273.655 256,273.655 "></polygon> <polygon style="fill:#546080;" points="238.345,308.966 256,308.966 256,291.31 238.345,291.31 "></polygon> <polygon style="fill:#546080;" points="238.345,273.655 256,273.655 256,256 238.345,256 "></polygon> <polygon style="fill:#546080;" points="256,256 273.655,256 273.655,238.345 256,238.345 "></polygon> <polygon style="fill:#546080;" points="238.345,238.345 256,238.345 256,220.69 238.345,220.69 "></polygon> <polygon style="fill:#546080;" points="256,185.379 273.655,185.379 273.655,167.724 256,167.724 "></polygon> <polygon style="fill:#546080;" points="238.345,203.034 256,203.034 256,185.379 238.345,185.379 "></polygon> <polygon style="fill:#546080;" points="238.345,167.724 256,167.724 256,150.069 238.345,150.069 "></polygon> <polygon style="fill:#546080;" points="256,326.621 273.655,326.621 273.655,308.966 256,308.966 "></polygon> <path style="fill:#546080;" d="M256,379.586L256,379.586c-14.627,0-26.483-11.855-26.483-26.483v-26.483h52.966v26.483 C282.483,367.731,270.627,379.586,256,379.586"></path> </g> <g> <path style="fill:#FFFFFF;" d="M158.897,203.034H52.966c-4.882,0-8.828-3.946-8.828-8.828s3.946-8.828,8.828-8.828h105.931 c4.882,0,8.828,3.946,8.828,8.828S163.778,203.034,158.897,203.034"></path> <path style="fill:#FFFFFF;" d="M158.897,238.345H52.966c-4.882,0-8.828-3.946-8.828-8.828s3.946-8.828,8.828-8.828h105.931 c4.882,0,8.828,3.946,8.828,8.828S163.778,238.345,158.897,238.345"></path> </g> </g> </g></svg>